<svg xmlns="http://www.w3.org/2000/svg" width="13" height="12.849" viewBox="0 0 13 12.849">
  <path id="Icon_material-language" data-name="Icon material-language" d="M9.494,3A6.425,6.425,0,1,0,16,9.424,6.459,6.459,0,0,0,9.494,3ZM14,6.855H12.081a9.983,9.983,0,0,0-.9-2.287A5.206,5.206,0,0,1,14,6.855ZM9.5,4.311a9.005,9.005,0,0,1,1.241,2.544H8.259A9.005,9.005,0,0,1,9.5,4.311Zm-5.031,6.4a4.969,4.969,0,0,1,0-2.57h2.2a10.489,10.489,0,0,0-.091,1.285,10.489,10.489,0,0,0,.091,1.285ZM5,11.994H6.92a9.983,9.983,0,0,0,.9,2.287A5.178,5.178,0,0,1,5,11.994ZM6.92,6.855H5A5.178,5.178,0,0,1,7.817,4.568,9.983,9.983,0,0,0,6.92,6.855ZM9.5,14.538a9.005,9.005,0,0,1-1.241-2.544h2.483A9.005,9.005,0,0,1,9.5,14.538Zm1.521-3.829H7.979a9.344,9.344,0,0,1-.1-1.285,9.263,9.263,0,0,1,.1-1.285h3.042a9.263,9.263,0,0,1,.1,1.285A9.344,9.344,0,0,1,11.021,10.709Zm.163,3.572a9.983,9.983,0,0,0,.9-2.287H14a5.206,5.206,0,0,1-2.814,2.287Zm1.151-3.572a10.488,10.488,0,0,0,.091-1.285,10.488,10.488,0,0,0-.091-1.285h2.2a4.969,4.969,0,0,1,0,2.57Z" transform="translate(-3 -3)" fill="#fff"/>
</svg>
