<svg xmlns="http://www.w3.org/2000/svg" width="12.849" height="13.153" viewBox="0 0 12.849 13.153">
  <g id="グループ_32" data-name="グループ 32" transform="translate(4.999)">
    <g id="グループ_24" data-name="グループ 24" transform="translate(-4.999)">
      <path id="Icon_ionic-logo-facebook" data-name="Icon ionic-logo-facebook" d="M16.639,4.5H5.209a.718.718,0,0,0-.709.726v11.7a.718.718,0,0,0,.709.726h5.715V12.447H9.389V10.529h1.536V9.11a2.468,2.468,0,0,1,2.633-2.624c.709,0,1.472.055,1.65.079V8.34H14.026c-.806,0-.96.39-.96.966v1.223h1.921l-.251,1.918h-1.67v5.206h3.574a.718.718,0,0,0,.709-.726V5.226A.718.718,0,0,0,16.639,4.5Z" transform="translate(-4.5 -4.5)" fill="#fff"/>
    </g>
  </g>
</svg>
