<svg id="Icon_ionic-logo-instagram" data-name="Icon ionic-logo-instagram" xmlns="http://www.w3.org/2000/svg" width="13" height="12.849" viewBox="0 0 13 12.849">
  <path id="パス_2" data-name="パス 2" d="M13.708,5.571a2.72,2.72,0,0,1,1.913.786,2.637,2.637,0,0,1,.8,1.89V13.6a2.657,2.657,0,0,1-.8,1.89,2.7,2.7,0,0,1-1.913.786H8.292a2.72,2.72,0,0,1-1.913-.786,2.637,2.637,0,0,1-.8-1.89V8.248a2.657,2.657,0,0,1,.8-1.89,2.7,2.7,0,0,1,1.913-.786h5.417m0-1.071H8.292A3.781,3.781,0,0,0,4.5,8.248V13.6a3.781,3.781,0,0,0,3.792,3.748h5.417A3.781,3.781,0,0,0,17.5,13.6V8.248A3.781,3.781,0,0,0,13.708,4.5Z" transform="translate(-4.5 -4.5)" fill="#fff"/>
  <path id="パス_3" data-name="パス 3" d="M24.428,10.606a.8.8,0,1,1,.8-.8A.8.8,0,0,1,24.428,10.606Z" transform="translate(-14.401 -6.859)" fill="#fff"/>
  <path id="パス_4" data-name="パス 4" d="M14.462,12.321a2.141,2.141,0,1,1-2.141,2.141,2.143,2.143,0,0,1,2.141-2.141m0-1.071a3.212,3.212,0,1,0,3.212,3.212,3.213,3.213,0,0,0-3.212-3.212Z" transform="translate(-7.962 -8.038)" fill="#fff"/>
</svg>
