<svg xmlns="http://www.w3.org/2000/svg" width="122.892" height="14.29" viewBox="0 0 122.892 14.29">
  <g id="料理旅館_お食事処" data-name="料理旅館 お食事処" transform="translate(-289.506 -384.439)" style="isolation: isolate">
    <g id="グループ_39" data-name="グループ 39" transform="translate(289.506 384.439)" style="isolation: isolate">
      <path id="パス_12" data-name="パス 12" d="M292.634,391.12a3.638,3.638,0,0,0-.808.219,3.7,3.7,0,0,0-.588.265.194.194,0,0,1-.087.014,1.487,1.487,0,0,1-.589-.147,8.175,8.175,0,0,0-.808-.411l.015-.088c.778-.176,1.1-.25,1.763-.455.073-.029,1.469-.485,1.558-.513l.028-.06v-1.688l.029-.633c0-.072-.029-.44-.029-.513a4.169,4.169,0,0,0-.176-1.293c-.058-.058-.352-.2-.4-.249a.713.713,0,0,1-.19-.4c.058,0,.88-.044.939-.044a2.869,2.869,0,0,1,1.278,1.014,7.178,7.178,0,0,1-.25.792c-.015.117-.088.677-.117.778-.015.06-.1.295-.1.339,0,.175,0,.719.015.823h.1a.75.75,0,0,0,.294-.28c.088-.131.573-.69.587-.734a1.084,1.084,0,0,0,.118-.219l.162-.265c-.118-.19-.147-.219-.514-.485l.029-.072c.015,0,.7-.089.72-.1a.493.493,0,0,0,.176-.088c.176.029,1.043.381,1.043.7,0,.265-.235.367-.646.543-.059.029-.235.251-.279.279-.118.073-.72.529-.852.633a6.085,6.085,0,0,0-.529.323.317.317,0,0,1-.162,0c-.235.146-.338.19-.338.469a.663.663,0,0,0,.044.162.817.817,0,0,0,.25-.073.921.921,0,0,1,.47-.146c.147,0,.852.058.852.44,0,.118-.308.295-.382.339a5.231,5.231,0,0,1-1,.19.584.584,0,0,0-.294.133l-.015,1.292a1.309,1.309,0,0,0,.558.162c.015.016.72.471.793.646a.718.718,0,0,1,.22.382c0,.221-.206.514-.441.514a1.4,1.4,0,0,1-.734-.367c-.206-.235-.235-.25-.382-.293-.015.146.044.822.044.866,0,.1-.029,1.2-.029,1.278a3.384,3.384,0,0,1,.015.676c-.015.176.044,1.382,0,1.63-.088.411-.117.617-.441.676-.411-.162-.5-.19-.587-.557-.044-.118-.191-.4-.22-.486a4.125,4.125,0,0,1-.015-.441,2.918,2.918,0,0,1,.162-.279,19.036,19.036,0,0,0,.25-2.321c0-.19,0-1.557-.015-1.645-.043.015-.088.088-.132.162a18.748,18.748,0,0,1-1.1,1.6c-.147.147-.484.514-.6.661-.176.088-.206.133-.47.5l-.426.337a1.421,1.421,0,0,1-.646.25c-.235,0-.25-.073-.25-.206a6.031,6.031,0,0,0,.955-1.043c.147-.176.647-1.012.778-1.146.118-.234.764-1.19.881-1.4a5.484,5.484,0,0,1,.441-.778Zm-2.7-3.1.044-.029c.147.044.809.06.94.088a1.435,1.435,0,0,1,.984.676,3.2,3.2,0,0,1,.279,1.014,1.074,1.074,0,0,1-.1.293,2.8,2.8,0,0,0-.338.28.979.979,0,0,0-.308-.148c-.162-.146-.162-.146-.353-.5a6.2,6.2,0,0,0-.411-.983,4.1,4.1,0,0,1-.441-.236c-.072-.088-.088-.117-.308-.367Zm9.767,3.026c0-.425,0-1.087-.015-1.5l-.044-1.513c-.015-.6,0-.836,0-1.292a5.622,5.622,0,0,0-.087-1,.8.8,0,0,0-.323-.263.892.892,0,0,1-.294-.4.282.282,0,0,1,.131-.043c.03,0,.264.087.353.117.117.029.632.044.734.073a1.756,1.756,0,0,1,1.116,1.028l-.293.558-.06.059-.029.748a1.83,1.83,0,0,0-.028.265c0,.117.014.6.014.69,0,.162-.058.88-.058,1.028,0,.1.058.587.058.631v.808c-.014.1-.058.543-.058.633v.617a1.323,1.323,0,0,0-.045.219c0,.044,0,.294.089.294a1.147,1.147,0,0,0,.7-.235,1.314,1.314,0,0,1,.367-.059,2.851,2.851,0,0,1,1.013.367,1.362,1.362,0,0,1,.294.47l-.22.235c-.088.044-.338.177-.4.206-.1-.015-.441-.059-.529-.059a12.386,12.386,0,0,0-1.307.044,1.947,1.947,0,0,0-.029.426c0,.044,0,.646-.015.676a1.468,1.468,0,0,0-.059.382c0,.1.029.852.029.956s-.191,1.394-.206,1.513a2.783,2.783,0,0,1-.381,1.012h-.088a.76.76,0,0,1-.207-.47c0-.162-.072-.91-.072-1.058,0-.235-.06-1.248-.06-1.469s-.088-1.307-.088-1.4c0-.044.029-.219.029-.264a.268.268,0,0,0-.029-.117c-.1.014-.132.014-.352.028-.088,0-.485.118-.558.133s-.353.072-.4.088-.25.1-.279.117c-.044,0-.294.028-.338.028-.22.044-1.2.455-1.381.5-.294.176-.338.191-.4.191a3.207,3.207,0,0,1-1.586-.469c-.044-.03-.132-.088-.132-.133a.079.079,0,0,1,.044-.059,13.587,13.587,0,0,0,2-.6,10.575,10.575,0,0,1,1.234-.294c.279-.058,1.514-.307,1.764-.367a3.428,3.428,0,0,0,.4-.088c.045-.029.059-.118.059-.191v-.22Zm-4.215.323a2.411,2.411,0,0,0,1.16-.162,2.739,2.739,0,0,0,.514-.219,1.76,1.76,0,0,1,.382-.177,2.656,2.656,0,0,1,.676.177c.059.014.132.072.25.25a.269.269,0,0,0-.029.118c0,.352-.117.4-.382.5a3.557,3.557,0,0,1-1.6.191,1.039,1.039,0,0,1-1-.6Zm1.087-2.849c.088,0,.5-.044.587-.044.587,0,.661-.014.969.148.352.175.514.279.514.441,0,.058-.073.352-.073.411a.553.553,0,0,1-.338.146,3.461,3.461,0,0,1-1.689-.4,1,1,0,0,1-.485-.822C296.13,388.4,296.5,388.519,296.571,388.519Z" transform="translate(-289.506 -384.451)" fill="#8d857b"/>
      <path id="パス_13" data-name="パス 13" d="M304.446,394.721a1.827,1.827,0,0,1,.677.088.726.726,0,0,0,.206-.117,4.2,4.2,0,0,0,.866-.6c.044-.044.367-.234.543-.353a.312.312,0,0,0,.191-.323c0-.044-.029-.25-.029-.293,0-.074.029-.6.029-.721a13,13,0,0,0-.043-1.351c-.1,0-.53.117-.617.132a.4.4,0,0,1-.28.133,4.038,4.038,0,0,1-1.337-.4l.03-.088c.117-.044.646-.117.748-.148a13.632,13.632,0,0,0,1.455-.631l.014-1.484a1.237,1.237,0,0,0-.176-.836c-.029,0-.117-.03-.146-.03l-.47.015c-.044,0-.47-.176-.559-.206l-.411-.307.06-.1a3.448,3.448,0,0,0,1.146-.132,12.331,12.331,0,0,0,1.263-.454c.573-.25.631-.28.661-.515l.044-.028c.822.058.925.058,1.057.132.073.044.4.206.4.367,0,.206-.1.235-.412.353-.088.028-.411.264-.484.278-.177.06-.441.177-.618.235-.117.044-.661.148-.763.176l-.016.045c.06.044.367.22.412.264a1.285,1.285,0,0,1,.206.529c0,.131-.1.7-.1.822a.719.719,0,0,0,.043.236,5.088,5.088,0,0,1,.677-.117c.367,0,.94,0,.94.367,0,.117-.029.147-.339.353-.044.044-.645.219-.763.263-.088.044-.411.236-.529.309a.874.874,0,0,0-.06.263c0,.015.016.28.016.338,0,.147.028.881.028.969a5.627,5.627,0,0,1-.072.646,1.486,1.486,0,0,0,.573-.293c.5-.339.749-.515,1.086-.515.192,0,.427.06.367.279-.1.059-.469.47-.557.529a5.085,5.085,0,0,0-.734.6c-.045.028-.529.4-.618.469a4.911,4.911,0,0,1-.6.5c-.073.044-.353.323-.411.367-.029.016-.162.1-.177.118-.072.044-.278.338-.337.382a2.755,2.755,0,0,1-.264.176.62.62,0,0,0-.073.176c0,.015.044.294.044.353,0,.118-.044.514-.382.514a.788.788,0,0,1-.426-.162c-.088-.059-.367-.367-.442-.411l-.1-.162c-.206-.132-.221-.206-.294-.6,0-.06-.147-.309-.147-.367Zm8.549.117-.03-.1c-.059,0-.646.191-.69.206s-.69.147-.792.147a2.109,2.109,0,0,1-1.191-.337c-.338-.177-.382-.206-.4-.295l.028-.015a3.43,3.43,0,0,0,.794-.117c.1-.029.646-.132.675-.146.162-.044.868-.265.912-.28s.513-.1.617-.117a.723.723,0,0,0,.028-.308v-1.4l-.059-.044a1.522,1.522,0,0,0-.381.1,1.282,1.282,0,0,1-.236.014,1.184,1.184,0,0,1-1.043-.337,2.754,2.754,0,0,1-.528-1.19c0-.016.058-.427.058-.441s-.014-.088-.073-.734c-.029-.265-.058-1.411-.088-1.63-.014-.163-.043-.867-.058-.94-.06-.25-.206-.4-.5-.7-.044-.044-.044-.073-.028-.162.117-.016.661.132.778.132.088,0,1.469-.411,1.747-.455.323-.044,1.808-.265,2.027-.265.088,0,.426-.044.5-.044s.47-.146.558-.146a1.543,1.543,0,0,1,1.1.455c.529.4.573.441.573.7,0,.118-.029.162-.22.25a1.194,1.194,0,0,0-.059.471c0,.058-.088.338-.1.4-.016.089-.016.514-.016.6,0,.1-.088.646-.088.75,0,.132-.029.7-.029.807a1.218,1.218,0,0,1-.1.6,8.093,8.093,0,0,1-.323,1.234,2.3,2.3,0,0,1-.455.411c-.117,0-.191-.088-.4-.294-.073-.014-.381-.029-.425-.029-.177,0-.633.044-.926.073-.117.029-.147.073-.147.192s-.028.69-.028.808c0,.044.044.219.044.263,0,.088-.016.471-.016.559a.689.689,0,0,0,.558-.192.61.61,0,0,1,.132-.029,3.122,3.122,0,0,1,1.234.221c.162.131.323.249.323.4,0,.264-.749.382-.793.382-.191.029-1.071.118-1.233.163-.324.073-.354.087-.354.219l-.014,1.249c0,.043-.03.249-.03.293a.542.542,0,0,0,.03.1c.529,0,1.776-.015,1.908-.044.073,0,.367-.19.441-.19a2.8,2.8,0,0,1,1.263.513,1.212,1.212,0,0,1,.264.72.275.275,0,0,1-.147.264,1.5,1.5,0,0,1-.367.059,11.242,11.242,0,0,1-1.2-.352,10.7,10.7,0,0,0-1.587-.206c-.162,0-.91.088-.983.088a3.9,3.9,0,0,0-1.351.235,3.209,3.209,0,0,0-.617.132c-.1.029-.734.279-.925.338-.074,0-.382.059-.442.059-.088,0-1.615-.294-1.644-.6.206-.044,1.071-.307,1.247-.338.133-.029.69-.22.808-.25.03,0,1.557-.279,2.028-.308.4-.028.425-.044.441-.162Zm-1.63-8.092a.792.792,0,0,1,.1.381c0,.074,0,.515.016.543.028.177.117.969.176,1.117.175-.016,1.189-.354,1.277-.383,0-.072.029-.307.029-.455,0-.131-.043-.7-.043-.823,0-.4-.016-.441-.265-.558-.044-.058-.1-.146-.19-.146-.133,0-.97.25-1.1.279Zm.529,4.626.867-.219.2-.073c.015-.177,0-1.587-.015-1.763-.1.014-.528.072-.617.072s-.557-.059-.661-.059c-.028.324.235,1.807.206,2Zm2.173-3.3a3.767,3.767,0,0,1,.455-.131c.22,0,.882.087.882.4a.83.83,0,0,1-.03.22c-.015,0-.925.337-.969.353s-.307.058-.352.072a1.517,1.517,0,0,0-.072.411c0,.045.028.265.028.308,0,.162-.015.926-.015,1.088,0,.088.03.132.176.132.117,0,.617-.118.706-.118.058,0,.367.088.44.088.162,0,.177-.307.177-.455a2.173,2.173,0,0,1,.058-.616,13.147,13.147,0,0,0,.162-1.851v-1.044c0-.073-.029-.6-.029-.66,0-.236-.015-.279-.234-.279a8.1,8.1,0,0,0-1.029.043,3.964,3.964,0,0,0-.94.236c.089.088.441.381.514.469a.49.49,0,0,1,.117.279,4.786,4.786,0,0,1-.1.485c0,.074.029.486.029.529Z" transform="translate(-289.817 -384.456)" fill="#8d857b"/>
      <path id="パス_14" data-name="パス 14" d="M322.911,387.12c-.014-.41-.058-1.131-.235-1.247-.484-.323-.543-.367-.573-.514l.045-.044a4.055,4.055,0,0,1,.588-.015c.029,0,.175-.045.206-.045.485,0,1.365.485,1.365.823,0,.059-.278.264-.294.323s-.014.117-.131.984c0,.059-.162.543-.192.645L324,388c.058-.06.118-.117.175-.117s.69,0,.721.014c.131.044.367.192.367.383,0,.294-.265.338-.808.44-.163.029-.9.1-1.028.162-.044.016-.4.148-.471.177a.117.117,0,0,0-.117.072c.309.117.852.4.852.706a1.377,1.377,0,0,1-.263.675,1.491,1.491,0,0,0-.192.455c.132.088.176.088.529.088a6.288,6.288,0,0,1,.588.251,2.8,2.8,0,0,1,.353.543,5.3,5.3,0,0,1-.263,1.159c-.029.088-.646,2.012-.677,2.086l-.014.132a7.413,7.413,0,0,0,.9-.969,20.381,20.381,0,0,0,1.234-1.909c.029-.088.485-.954.5-1.042a4.121,4.121,0,0,0,.455-1.013c-.162-.162-.469-.485-.587-.471l-.148.221c-.073.219-.1.25-.381.529-.118.117-.367.367-.442.455-.162,0-.25.058-.617.293a1.223,1.223,0,0,1,.294-.542,11.269,11.269,0,0,0,1.028-2.321,14.873,14.873,0,0,0,.353-1.734c0-.146.088-.792.088-.924a.645.645,0,0,0-.044-.235,1.066,1.066,0,0,1-.587-.543l.058-.06a1.428,1.428,0,0,0,.455-.1,1.045,1.045,0,0,1,.235-.016c.206,0,.264.03.69.279.163.088.5.1.559.294a.181.181,0,0,0,.117.117.289.289,0,0,1,.029.133.86.86,0,0,1-.191.47,2.626,2.626,0,0,0-.294.866,8.193,8.193,0,0,0-.382.984c0,.016.015.029.03.06.25-.03,1.277-.221,1.4-.25,1.013-.191,1.13-.221,1.512-.544.264-.219.294-.25.455-.25s1.132.192,1.19.192c.191.058.323.131.323.469,0,.221-.029.309-.294.309a5.6,5.6,0,0,0-1.131.117c-.146.029-.792.175-.925.191l-1.248.206c-.175.028-1.058.263-1.1.263-.073,0-.381-.073-.454-.073a.274.274,0,0,0-.162.177c-.03.117-.25.645-.265.763.06,0,.308-.044.367-.044a1.706,1.706,0,0,1,.5.148c.162.117.206.162.323.234.044.073.176.279.161.339-.117.367-.22.7-.264.924l.03.016c.175.044.25.058.734.469.19.162.219.191.263.191s1.175-1.572,1.175-1.63-.029-.087-.279-.263c-.132-.089-.294-.206-.294-.309a.1.1,0,0,1,.044-.087.469.469,0,0,0,.25-.1.378.378,0,0,1,.235-.058c.47,0,1.338.631,1.338.983a.63.63,0,0,1-.207.455,1.912,1.912,0,0,0-.705.587c-.028.029-.6.574-.69.676-.059.059-.264.323-.323.382a6.92,6.92,0,0,0,.514.912c.264.367.294.411.587.822a5.95,5.95,0,0,0,1.953,1.718,5.169,5.169,0,0,1,.867.632l.426.426c.044.338-.367.338-1.013.338a4.371,4.371,0,0,1-.792-.073.939.939,0,0,1-.118.029.919.919,0,0,0-.206-.059c-.338,0-1.057-.689-1.394-1.307-.06-.117-.442-.632-.485-.749-.044-.1-1.044-2.159-1.088-2.187a3.426,3.426,0,0,0-.719.25c-.045.028-.06.117-.06.162,0,.1.03.573.03.66,0,.147-.03.749-.03.867,0,.162-.014.882-.014,1.013,0,.162.014.867.014,1.014-.014.6-.088,1.263-.573,1.263-.411,0-.587-.765-.631-1.176.028-.073.175-.411.19-.47.073-.661.177-2,.177-2.056,0-1.381-.016-1.425-.148-1.586-.235.088-.6.617-.676.734a3.063,3.063,0,0,1-.7.661c-.146.118-.778.764-.808.778-.1.073-.631.308-.719.383-.06.072-.088.1-.176.219a3.68,3.68,0,0,1-.734,1.249,3.3,3.3,0,0,1-.514.616,6.714,6.714,0,0,1-.778.411.452.452,0,0,1-.162.029c-.192,0-.22-.059-.353-.294,0-.072-.028-.411-.028-.485a.737.737,0,0,0-.029-.294,2.749,2.749,0,0,1-.206-.485,3.512,3.512,0,0,1-.265-.529c0-.059.044-.088.1-.088.131,0,1.071.573,1.263.573.323,0,1.071-1.7,1.292-2.2a11.415,11.415,0,0,0,.646-2.468l-.058-.058c-.044-.016-.265-.044-.294-.06-.235-.132-.265-.146-.367-.146a5.287,5.287,0,0,1-.455.734c-.089.1-.339.587-.4.675a12.287,12.287,0,0,1-1.557,1.792,2.379,2.379,0,0,1-1.1.6.07.07,0,0,1-.073-.074c.073-.131.529-.617.617-.72.778-1.057,2.657-3.878,2.863-4.875-.087-.148-.235-.4-.279-.455a4.991,4.991,0,0,0-.968.307c-.295.148-.353.162-.456.162a7.687,7.687,0,0,1-1.409-.5c.014-.162.088-.162.7-.249a6.225,6.225,0,0,0,1.6-.4c.148-.058.838-.234.969-.307a.763.763,0,0,1-.117-.265,3.461,3.461,0,0,0,.016-.381Zm4.114,5.494a3.835,3.835,0,0,0,.441.5c.088-.088.557-.559.557-.661,0-.03-.513-.956-.763-.882-.06.148-.441.7-.471.837A.475.475,0,0,1,327.025,392.614Z" transform="translate(-290.128 -384.447)" fill="#8d857b"/>
      <path id="パス_15" data-name="パス 15" d="M334.042,391.54a3.182,3.182,0,0,0,.382-.234,22.475,22.475,0,0,0,2.82-4.245l.514-1.117a.27.27,0,0,0,.028-.117.244.244,0,0,0-.072-.176c-.045-.043-.323-.162-.367-.206a.262.262,0,0,1-.045-.162c0-.131.133-.162.207-.162.749,0,1.6.544,1.659.912-.058.072-.058.1-.146.382-.016.044-.191.175-.206.219l-.016.044c.176.044.926.192,1.057.25.176.073.853.411.853.706a.6.6,0,0,1-.03.176.842.842,0,0,0,.455.087c.191,0,2.057-.293,2.233-.352l.074-.06a5,5,0,0,1-.1-.954c0-.206-.088-.9-.279-.969a6.1,6.1,0,0,1-.911-.353.344.344,0,0,1-.1-.206c0-.058.014-.1.1-.19a.986.986,0,0,0,.176.059c.117,0,.617-.015.72,0,.192.043,1.058.337,1.293.426a.889.889,0,0,0,.263.25l.029.117a4.794,4.794,0,0,0-.249,1.057c-.016.029-.162.441-.192.529a.887.887,0,0,0,0,.192l.059.029c.029,0,.47-.1.529-.1a3.606,3.606,0,0,0,1.1-.162,3.416,3.416,0,0,1,.367-.25,1.271,1.271,0,0,1,.22-.014,2.4,2.4,0,0,1,.426.175,3.083,3.083,0,0,0,.72.647,1.225,1.225,0,0,1,.367.734c0,.367-.47.469-.529.469-.088,0-.308-.015-.441-.028a3.135,3.135,0,0,1-.514.234,4.617,4.617,0,0,1-.778.044c-.028,0-.234-.015-.264-.015-.279,0-.308,0-.337-.146.367-.06.41-.073.542-.191a1.472,1.472,0,0,0,.632-1,.477.477,0,0,0-.22-.044,6.031,6.031,0,0,0-1.072.06c-.087.014-.573.029-.66.058a5.489,5.489,0,0,1-1.029.206,5.333,5.333,0,0,0-1,.294c-.191.133-.206.147-.279.147-.014,0-.867-.087-.88-.087,0,.117.014.131.1.293a1.363,1.363,0,0,1,.1.382v.323a.783.783,0,0,1,.323.073c.645.25.719.279.851.471a1.041,1.041,0,0,0,.323.044c.162,0,.852-.1,1-.117.175,0,.852-.044,1.042-.25.016-.073.029-.25.308-.25.382,0,1.4.617,1.4.984,0,.088,0,.162-.279.4a.731.731,0,0,0-.176.235c-.117.485-.131.543-.162.633-.059.058-.088.072-.088.175-.015.059-.162.264-.162.308a2.314,2.314,0,0,0,.191.206.277.277,0,0,1,.029.117c0,.323-.352.323-.441.323-.367,0-1.924.308-2.247.308-.294,0-.338,0-.338.176,0,.044-.014.294-.014.338s.043.514.058.6c0,.1.471.117.529.117l1.307-.206c.1-.014.485-.088.5-.088.059-.043.279-.308.339-.323.044,0,.072-.014.1-.014.411,0,1.425.263,1.425.954,0,.03-.279.382-.425.573a5.134,5.134,0,0,0-.118.837c-.015.059-.117.411-.117.426,0,.088.03.1.308.236.176.087.323.219.323.367,0,.263-.25.322-.426.322s-1.027-.132-1.2-.132c-.044,0-.661.073-.984.117-.028.015-.234.015-.279.029a3.608,3.608,0,0,1-.382.1h-.294c-.1,0-.5-.117-.573-.117a4.5,4.5,0,0,1-.162.529,5.851,5.851,0,0,1-.454.411c-.148,0-.236-.176-.411-.558-.03-.059-.221-.279-.236-.337a.207.207,0,0,1-.014-.1c0-.029,0-.058.117-.294,0-.044.146-.852.146-.881v-.47l.073-.749c0-.015-.043-.837-.043-.984s.014-.807.014-.94-.044-.705-.044-.823a8.276,8.276,0,0,0-.175-2.086,1.315,1.315,0,0,0-.486-.441,2.244,2.244,0,0,0-.293.881.576.576,0,0,1-.383.4c-.278,0-.44-.573-.44-.778a13.164,13.164,0,0,1,.367-1.307c.014-.029.088-.515.088-.559,0-.249-.148-.235-.573-.279a2.72,2.72,0,0,1-1.088-.631,1.163,1.163,0,0,0-.542-.265c-.162,0-.471.6-.573.778-.06.117-.515.588-.515.633a.294.294,0,0,0,.044.117c.1.028,1.117.278,1.117.705a.34.34,0,0,1-.029.131c-.132.044-.148.06-.206.221a1.437,1.437,0,0,0-.162.5l.058.044c.162-.06.177-.088.309-.338a.426.426,0,0,1,.308-.191c.455,0,1.351.353,1.351.587,0,.206-.206.323-.295.367-.028.117-.234,2.849-.69,2.82a.47.47,0,0,0-.19-.088c-.044,0-.176.073-.294.088v.06a1.888,1.888,0,0,1,.719.381,1.257,1.257,0,0,0,.294.148c.016.014.6.748.72.88.03.044.132.323.176.367a1.86,1.86,0,0,1,.221.25l.014.029c0,.926,0,1.131-.469,1.131-.323,0-.367-.088-.662-.867-.044-.1-.307-.528-.338-.632-.044-.162-.073-.191-.131-.191-.1,0-.426.367-.5.426-.279.22-1.513,1.263-1.792,1.439a3.451,3.451,0,0,0-.633.7,5.052,5.052,0,0,1-.25.5.237.237,0,0,1-.175.073c-.353,0-.559-.22-.809-.485a.444.444,0,0,1-.337-.264l.088-.279a3.452,3.452,0,0,1-.015-.382.421.421,0,0,0-.1-.249c.03-.074.074-.133.132-.133a7.757,7.757,0,0,0,.779.426c.059-.059.749-.646.749-.69s-.117-.337-.117-.4c0-.028.029-.382.029-.455,0-.25.028-1.409.028-1.645,0-.087-.028-.529-.028-.616,0-.016.044-.589.044-.617,0-.809,0-1.307-.573-1.69-.117.044-.544.471-.646.529a7.547,7.547,0,0,1-.94.367,1.383,1.383,0,0,1-.148-.028Zm2.409-.823a2.317,2.317,0,0,0,.94-.146c-.029-1.131-.029-1.249-.367-1.425-.162.234-1,1.234-1.087,1.469C336.024,390.616,336.377,390.717,336.45,390.717Zm2.3,1c0-.118.06-.956-.162-.956-.073,0-.1.016-.411.177-.2.058-.808.19-1.087.234a.606.606,0,0,0-.044.191,2.162,2.162,0,0,0,.162.543c.192-.015.235-.044.633-.263.162-.03.573-.1.631-.1.117,0,.162.073.221.191Zm-.954,3.7c.19-.132,1.2-.719,1.2-.88a2.573,2.573,0,0,0-.352-.647.542.542,0,0,0-.353-.147,1.9,1.9,0,0,0-.5.162c-.1.029-.544.073-.6.148-.015.014-.088,1.027-.088,1.042,0,.044.044.221.044.264a3.61,3.61,0,0,0-.015.411A2.932,2.932,0,0,0,337.8,395.418Zm-.544-2.938a3.863,3.863,0,0,0-.014.4c0,.044-.059.323-.059.338a.8.8,0,0,0,.059.294,13.7,13.7,0,0,0,1.454-.557,2.9,2.9,0,0,0,.058-.867,1.229,1.229,0,0,0-.5.132c-.074.029-.911.175-.956.175Zm7.859-2a.152.152,0,0,0-.03-.117c-.1,0-.925.234-1.131.294a1.531,1.531,0,0,1-.382.044,1.8,1.8,0,0,1-.69-.132l-.058.014c.014.074.1.367.1.426,0,.088.06.471.06.558a2.024,2.024,0,0,0-.045.323c0,.03.059.236.059.28,0,.293,0,.337.044.4.117-.015,1.132-.234,1.351-.278.294-.06.426-.206.426-.236Zm-1.968,6.508a3.762,3.762,0,0,0,.631-.133c.074-.029,1.733-.117,1.792-.308.015-.044.044-.529.074-.632.014-.088.117-.984.117-1a1.652,1.652,0,0,0-.029-.294c-.147-.015-1.63.294-1.939.294a7.321,7.321,0,0,1-.807-.175.249.249,0,0,0-.1.206c0,.234.088,1.292.088,1.469a3.607,3.607,0,0,0,.044.513A.247.247,0,0,0,343.148,396.99Z" transform="translate(-290.433 -384.447)" fill="#8d857b"/>
      <path id="パス_16" data-name="パス 16" d="M354.382,396.861c0,1.293-.926,1.293-.97,1.293-.4,0-.485-.191-.822-1a7.239,7.239,0,0,0-1.469-1.983,10.619,10.619,0,0,1-.984-.867.108.108,0,0,1,.1-.1C350.783,394.2,354.382,395.011,354.382,396.861Z" transform="translate(-290.769 -384.642)" fill="#8d857b"/>
      <path id="パス_17" data-name="パス 17" d="M362.618,385.083c.573-.029,1.088,1.205,1.088,1.455,0,.088.014.573.014.587-.014.088-.073.455-.073.529a.156.156,0,0,0,.088.148c.029.015.207.088.251.1.557-.014.924.309.924.5,0,.117-.044.148-.263.353a2.182,2.182,0,0,0-.148.192,5.629,5.629,0,0,1-.852.4c-.25.118-.263.191-.279.309a3.66,3.66,0,0,0-.1.381l-.1,1.469c-.015.162-.044.6-.044.734s.029.162.089.176c.161-.028.867-.352,1.012-.4a11.534,11.534,0,0,1,2.557-.544,2.614,2.614,0,0,1,2.805,2.629,3.16,3.16,0,0,1-1.058,2.394,4.772,4.772,0,0,1-2.365.925c-.148,0-.383-.073-.383-.22,0-.073.029-.1.221-.191a5.645,5.645,0,0,0,1.864-1.748,4.059,4.059,0,0,0,.529-1.409,1.744,1.744,0,0,0-.632-1.279,2.448,2.448,0,0,0-1.381-.367,10.5,10.5,0,0,0-2.584.632c-.118.059-.588.338-.69.4l-.059.117-.235,1.969a3.643,3.643,0,0,1-.778,2.07,1.584,1.584,0,0,1-.485.235,2.185,2.185,0,0,1-.793-.469c-.162-.192-1.013-1.205-1.013-1.22-.073-.117-.441-.616-.544-.777.016-.192.117-.25,1.073-.853.044-.029.836-.66,1.012-.764a4.581,4.581,0,0,0,.868-.558c.072-.147.088-.22.1-.895.016-.323.074-1.718.074-2,0-.06,0-.236-.088-.265a4.506,4.506,0,0,1-1.5-.778,1.041,1.041,0,0,1-.219-.441.292.292,0,0,1,.028-.117c.133-.016.882.059.9.059a1.508,1.508,0,0,0,.94-.338,1.035,1.035,0,0,0,.06-.383c0-.206-.016-1.115-.03-1.307,0-.132-.073-.719-.073-.836a2.447,2.447,0,0,1,.117-.529Zm-2.055,10.267a.558.558,0,0,0,.5.47c.646,0,.925-1.454.94-1.836C361.782,393.984,360.563,395.041,360.563,395.35Zm6.256-7.358c.044,0,.47-.058.5-.058s2.718.323,2.718,1.776c0,.073,0,.485-.221.485a6.1,6.1,0,0,1-.719-.263,7.183,7.183,0,0,1-.809-.177c-.043-.015-.087-.044-.175-.176.014-.279-.045-.323-.529-.823-.1-.1-.677-.485-.734-.542a.536.536,0,0,1-.073-.162Z" transform="translate(-290.957 -384.452)" fill="#8d857b"/>
      <path id="パス_18" data-name="パス 18" d="M371.3,393.941a7.44,7.44,0,0,0,1.528-1.659,13.8,13.8,0,0,0,1.248-1.778c.029-.044.617-.836.72-1,.176-.295.94-1.586,1.1-1.852.132-.206.734-1.159.867-1.469a1.164,1.164,0,0,1,.219-.4,1.925,1.925,0,0,0,.236-.677c0-.117-.1-.146-.47-.279l-.044-.058a2.351,2.351,0,0,1,.645-.309c.074,0,.383-.028.442-.028a2.169,2.169,0,0,1,.441.25c.646.294.72.323.778.661-.015.014-.162.367-.235.4-.22.058-.558.176-.558.382a4.912,4.912,0,0,0,.661.69c.206.175.955,1,1.013,1.087a8.621,8.621,0,0,0,.911.895l.969.868a5.286,5.286,0,0,0,1.218.823c.117.058.6.352.706.4a6.1,6.1,0,0,1,1.469.969,1.883,1.883,0,0,1,.278.191.3.3,0,0,1,.089.22c0,.235-.441.279-.6.279a6.707,6.707,0,0,1-1.822-.191c-.352-.117-.469-.22-1.453-1.218a17.625,17.625,0,0,1-1.293-1.411c-.117-.147-.749-.836-.809-.925-.19-.263-1.012-1.5-1.2-1.732-.323-.411-.367-.47-.5-.515-.133.089-.764.985-.808,1.029-.191.22-.22.234-.279.44.059,0,.338.016.4.016.088,0,.411-.088.485-.088s.162.088.22.132c.381.191.72.5.72.646,0,.176-.191.307-.295.367a3.109,3.109,0,0,0-.175.278c-.015.045-.044.339-.059.4.206-.044,1.013-.191,1.146-.191a2.173,2.173,0,0,1,.455.207c.6.338.675.382.675.6a.456.456,0,0,1-.19.441,2.54,2.54,0,0,0-.177.9c-.014.148-.19.809-.206.94a3.389,3.389,0,0,1-.425.587,6.266,6.266,0,0,1-.94.177,9.161,9.161,0,0,0-1.439.381l.015.059a2.548,2.548,0,0,1,.778.323,3.815,3.815,0,0,0,.778.383c.162,0,2.011-1.205,2.129-1.91-.206-.235-.234-.264-.234-.308.22-.146.308-.206.411-.206a.738.738,0,0,1,.573.221c.088.073.529.381.587.454a.452.452,0,0,1,.131.264c0,.383-3.113,1.351-3.113,1.718,0,.117.558.411,1.175.734.117.059.587.352.675.4a18.277,18.277,0,0,1,1.969.955,8.446,8.446,0,0,0,1.557.749l.015.1c-.059.029-.323.206-.382.235-.147.059-.162.073-.25.073-.133.147-.177.147-.5.147-.073,0-.411.015-.485.015a2.8,2.8,0,0,1-1.644-.573,10.057,10.057,0,0,1-1.351-1.058c-.176-.162-.837-.764-.94-.823a9.909,9.909,0,0,0-.97.442,7.655,7.655,0,0,1-1.012.5c-.015,0-2.262,1.146-2.394,1.2-.088.044-.367.441-.47.441a1.547,1.547,0,0,1-1.028-.573c-.088-.1-.1-.206-.176-.573a1.99,1.99,0,0,1-.147-.308c0-.015.015-.059.015-.073.088.015.558.1.6.118a1.147,1.147,0,0,0,.308.072c.044,0,.808-.264.94-.323.558-.191.632-.22.632-.426s-.029-1.2-.029-1.41c0-.147.029-.764.029-.895l.015-1.279c0-.176.044-.968.044-1.13a.565.565,0,0,0-.411-.573c-.1,0-.984,1.292-1.19,1.513a7.705,7.705,0,0,1-1.263,1.247,4.106,4.106,0,0,1-.94.352c-.059,0-.118-.029-.1-.117Zm5.581-3.922c.029-.014.088-.044.088-.088,0-.1.029-.513.029-.6,0-.587,0-.778-.5-.778a.8.8,0,0,0-.147.016c-.191.294-1.072,1.615-1.19,1.763a.5.5,0,0,0-.117.307c.059.029.073.029.147,0a.548.548,0,0,1,.323-.132Zm-.734,1.263c.044.294.059.427.176.427.411-.118,1.219-.367,1.63-.471a1.316,1.316,0,0,1,.455-.191c.118,0,.5,0,.6-.015a3.926,3.926,0,0,0,.059-.925c-.029,0-.1-.028-.147-.028s-.25.058-.294.058a3.509,3.509,0,0,0-1.028.162c-.176.06-.925.236-1.072.294-.1.044-.676.206-.69.206-.015.029,0,.029.015.073A.492.492,0,0,1,376.149,391.282Zm2.071,3.892c-.073,0-.367.044-.455.044h-.015c0-.059.25-.206.25-.235s-.486-.338-.558-.426c-.426-.426-.808-.823-1.2-.823-.132,0-.132.162-.162.441s-.191,1.41-.191,1.645c0,.029,0,.294.161.294a17.746,17.746,0,0,0,2.439-.705C378.44,395.38,378.234,395.175,378.22,395.175Zm.837-3.481a.132.132,0,0,0-.117-.146c-.015,0-.764.206-.853.219-.1.03-.616.074-.719.1-.132.028-.75.206-.881.219-.279.015-.308.015-.338.1-.015.029-.073.456-.073.47,0,.162.073.426.088.587a.121.121,0,0,0,.118.133c.015,0,2.2-.646,2.629-.75A3.189,3.189,0,0,0,379.057,391.694Z" transform="translate(-291.209 -384.439)" fill="#8d857b"/>
      <path id="パス_19" data-name="パス 19" d="M386.951,387.159a1.108,1.108,0,0,1,.294-.087c.044,0,.382.043.456.043a7.686,7.686,0,0,0,1.512-.131c.176-.03.969-.088,1.131-.1l1.528-.175a2.554,2.554,0,0,0,.793-.163c.044-.836-.1-1.087-.382-1.189-.411-.148-.837-.309-.837-.559,0-.058.044-.1.1-.162.1.016.558.089.646.089s.733,0,.778.015a5.853,5.853,0,0,1,.749.4c.059.044.206.19.206.278,0,.148-.088.734-.088.868a.828.828,0,0,0,.028.162,1.28,1.28,0,0,0,.236.015c.22,0,1.233-.132,1.438-.148l1.205-.044a1.584,1.584,0,0,0,.661-.19c.014,0,.47-.117.5-.117a8.78,8.78,0,0,1,.94.323c.25.072.544.176.544.529a.328.328,0,0,1-.06.146c-.043.016-.191.088-.219.1a1.23,1.23,0,0,1-.338.044c-.22,0-1.719-.148-1.748-.148-.1,0-.514.06-.6.06-.264,0-1.4.088-1.63.088-.911.028-1.013.044-1.013.294a2.3,2.3,0,0,0,.043.542.831.831,0,0,0,.162.016,15.239,15.239,0,0,0,1.852-.133c.072-.014.338-.206.411-.206s1.012.309,1.012.633c0,.044-.044.235-.044.263a3.387,3.387,0,0,0-.469,1.205c0,.206,0,.381-.4.381-.1,0-.543-.029-.632-.029a9.628,9.628,0,0,0-1.777.117c-.132.016-.162.088-.162.411a1.107,1.107,0,0,0,.059.485l.059.044c.308,0,1.66-.132,1.939-.132.25,0,.278-.029.6-.263a.243.243,0,0,1,.162-.045,2.189,2.189,0,0,1,1.1.529,1.729,1.729,0,0,1,.148.295c0,.19-.206.44-.265.631a1.129,1.129,0,0,0,0,.309.721.721,0,0,0,.471-.06,1,1,0,0,1,.529-.235,6.377,6.377,0,0,1,.748.264c.734.206.838.236.838.426,0,.353-.295.411-.471.441-.029,0-.162.088-.191.088a2.952,2.952,0,0,1-.661-.1,3.131,3.131,0,0,0-.924-.133,2.8,2.8,0,0,0-.441.029,6.479,6.479,0,0,0-.118.661c0,.029-.074.191-.074.221,0,.087.177.425.177.5,0,.308-.264.308-.426.308-.03,0-1.1-.072-1.322-.072a14.159,14.159,0,0,0-1.674.118c-.147.028-.235.087-.235.293s.132,1.072.132,1.248a4.033,4.033,0,0,1-.5,1.808c-.118.234-.162.234-.617.234-.265,0-.294-.059-.529-.529a5.073,5.073,0,0,0-.764-.47c-.015-.015-.1-.088-.118-.1-.058-.059-.469-.176-.513-.234-.029-.016-.059-.06-.117-.192l.029-.059a3.863,3.863,0,0,0,1.5.132.661.661,0,0,0,.338-.059.609.609,0,0,0,.015-.147c0-.264.088-1.512.073-1.63l-.029-.015a5.809,5.809,0,0,0-1.219.22,2.068,2.068,0,0,1-.72.206c-.044,0-.206.132-.25.132s-.059-.029-.088-.058a2.147,2.147,0,0,1-.925-.295c-.206-.117-.279-.162-.279-.264a2.371,2.371,0,0,1,.382-.132,3.814,3.814,0,0,0,1.293-.162c.279-.073,1.586-.22,1.82-.323a4.371,4.371,0,0,0,.03-.866,1.128,1.128,0,0,0-.367-.03,3.525,3.525,0,0,0-1.043.192c-.029,0-.632.087-.749.1-.367.073-1.439.279-1.733.353-.162.029-.823.264-.955.264a5.716,5.716,0,0,1-1.454-.587l-.029-.087c.073-.1.133-.1.706-.177.117-.015.631-.132.748-.147.176-.015,1.351-.147,1.792-.22.132-.028.734-.117.852-.147.176-.043.94-.087,1.1-.117.118-.029.838-.162.985-.175.117,0,.162-.016.162-.295v-.19c0-.03.029-.177.029-.206,0-.148-.044-.206-.117-.206-.163,0-.911.131-1.072.162s-.852.219-1,.25a7.963,7.963,0,0,0-.9.131,1.513,1.513,0,0,1-.206.059c-.22,0-.6-.352-.808-.543-.059-.058-.4-.191-.4-.263a.1.1,0,0,1,.1-.088c.059,0,.734.072.867.072.015,0,.705-.1.837-.117.352-.028,1.292-.088,1.6-.162.162-.028.867-.19,1.012-.234a.462.462,0,0,0,.045-.206,4.269,4.269,0,0,0-.088-.6.136.136,0,0,0-.118-.058c-.072,0-.689.117-.822.146a2.379,2.379,0,0,0-.308.1,1.71,1.71,0,0,0-.264.014c-.044.015-.191.088-.235.1h-.073a.49.49,0,0,1-.191.058c-.176,0-.382-.219-.587-.616a4.1,4.1,0,0,0-.235-1.044,3.918,3.918,0,0,0-.632-.411.107.107,0,0,1-.059-.146,4.7,4.7,0,0,0,1.219-.177c.352-.117,2-.206,2.321-.307a1.225,1.225,0,0,0,.028-.265c0-.146,0-.485-.131-.485a4.392,4.392,0,0,0-.925.133,18.9,18.9,0,0,0-2.027.323,3.353,3.353,0,0,1-1.116.234,2.992,2.992,0,0,1-.72-.307c-.132-.088-.749-.367-.867-.442Zm5.684,1.557a8.163,8.163,0,0,0-1.865.279l-.015.074a4.1,4.1,0,0,1,.338.836,1.1,1.1,0,0,0,.162.029c.015,0,1.028-.206,1.16-.235.264-.044.294-.058.294-.162,0-.19-.015-.573-.029-.793Zm3.246-.367c-.427.016-1.279.06-1.7.1-.367.029-.426.058-.426.646,0,.455.044.513.147.513s.454-.058.764-.1c.117-.016.558-.016.675-.016a1.73,1.73,0,0,0,.367-.028A4.259,4.259,0,0,0,395.881,388.349Zm-.411,5.831.557-.044.192-.044a1.13,1.13,0,0,0,.191-.734c0-.117,0-.191-.455-.191-.015,0-1.116.1-1.175.1a7.149,7.149,0,0,0-.925.162.489.489,0,0,0-.088.25,2.091,2.091,0,0,0,.073.631.318.318,0,0,0,.146.029c.03,0,.177-.014.206-.014Zm.352-1.557a6.177,6.177,0,0,0,.633-.087,4.536,4.536,0,0,0,.044-.794c-.06-.044-.06-.044-.1-.044-.087,0-.5-.015-.587-.015-.162,0-.823.088-.969.088-.206,0-.955,0-1,.1a2.644,2.644,0,0,0-.059.587c0,.28.073.4.4.354Z" transform="translate(-291.524 -384.443)" fill="#8d857b"/>
      <path id="パス_20" data-name="パス 20" d="M403.071,391.4a3.534,3.534,0,0,1,.954.175c.147.044.955.661,1.16.661a2.413,2.413,0,0,0,.264-.836c.029-.088.5-1.4.558-1.674.015-.073.073-.411.088-.485l.294-1.176c.015-.014.206-.836.206-.866l.059-.309a2.509,2.509,0,0,0,.147-.484c-.177-.016-.206,0-.529.117-.162.06-.881.1-1.013.148a1.9,1.9,0,0,0-.132.514,2.385,2.385,0,0,0-.117.294,1.262,1.262,0,0,1-.029.146c0,.016-1.013,2.365-1.058,2.438-.1.162-.529.911-.646,1.088-.529.425-.588.469-.734.6a1.033,1.033,0,0,0-.4.177.092.092,0,0,1-.059.014.567.567,0,0,1-.176-.029l-.015-.058a4.868,4.868,0,0,0,.809-1.469c.117-.25.454-1.014.528-1.19l.558-1.455c.044-.088.4-1.2.4-1.219a.361.361,0,0,0-.294-.323c-.485-.176-.529-.19-.587-.367l.044-.028c.176-.016.206-.029.514-.221a1.778,1.778,0,0,1,.6-.117,2.62,2.62,0,0,1,.6.177c.029.029.22.132.25.162s.059.088.088.219a9.143,9.143,0,0,0,1.131-.235.414.414,0,0,0,.176-.263.309.309,0,0,1,.1-.279,2.334,2.334,0,0,1,.676.279,3.293,3.293,0,0,1,.617.353l-.016.22c.089.087.118.087.28.087.059,0,.338-.087.4-.087s.353.087.411.1c.235.045.25.045.381.221.1-.03.559-.192.662-.221.132-.044.676-.322.793-.382-.029-.263.029-.293.235-.353a.405.405,0,0,1,.294-.176c.014,0,.734.427.823.471.206.118.206.162.293.5a1.257,1.257,0,0,1,.016.235c-.279.162-.308.263-.529,1.116a23.149,23.149,0,0,0-.323,2.732l-.088,1.453a6.98,6.98,0,0,0,.072,1.087.668.668,0,0,0,.721.485c.131,0,.337,0,.514-.777a7.168,7.168,0,0,1,.147-.853.231.231,0,0,1,.22-.1c.132,0,.176.706.25.823a5.221,5.221,0,0,0,.543.924.686.686,0,0,1,.307.558c0,.074-.25.236-.278.28a1.94,1.94,0,0,1-1.323.307,1.848,1.848,0,0,1-1.688-.734c-.25-.294-.455-.529-.455-2.262,0-.235.058-1.293.058-1.5,0-.073-.014-.4-.014-.441l.088-1.218.1-.633c.015-.044.206-1.336.206-1.381l-.059.016a4.023,4.023,0,0,1-.72.352,1.971,1.971,0,0,0-.72.221.63.63,0,0,0-.029.175c0,.03.015.162.015.192,0,.1-.029.557-.029.6v.822c-.015.088-.25,1.645-.25,1.659a10.47,10.47,0,0,1-1.307,3.349c-.1.029-.1.044-.191.132a.663.663,0,0,1-.323.147l.015.059c.22.162,1.293.823,1.513.969a7.044,7.044,0,0,0,2.747,1.278l1.659.543a2.764,2.764,0,0,1,.734.294,4.728,4.728,0,0,0,.471.22v.044a.354.354,0,0,0-.1.235c-.206.118-.206.118-.617.147l-1.351.1c-.043,0-.631.029-.66.029-1.057,0-1.234-.162-2.776-1.454-.044-.044-.455-.278-.543-.338a6.287,6.287,0,0,1-.485-.411c-.1-.073-.6-.367-.69-.441-.132-.1-.721-.513-.823-.617-.176-.162-1.013-.852-1.043-.852l-.059.029c-.059.088-.206.485-.264.543-.117.133-.529.793-.646.9a.643.643,0,0,1-.147.117,8.577,8.577,0,0,1-.925,1.219,1.319,1.319,0,0,1-.47.426c-.029.015-.147.191-.176.22a2.868,2.868,0,0,1-1.394.705l-.016-.073a5.728,5.728,0,0,1,.485-.557,27.189,27.189,0,0,0,1.763-2.4,16.34,16.34,0,0,0,1.043-1.807,2.339,2.339,0,0,0-1.219-.866,1.225,1.225,0,0,1-.587-.868Zm3.847-1.411-.088.118a10.387,10.387,0,0,1-.529,1.924,2.893,2.893,0,0,0-.176.367,4.6,4.6,0,0,1-.132.485,3.84,3.84,0,0,0,.852.646c.059.03.279.236.338.236a2.173,2.173,0,0,0,.748-.985,14.225,14.225,0,0,0,.912-4.493c0-.323,0-.808.015-1a1.239,1.239,0,0,0-.03-.441,3.424,3.424,0,0,0-.4-.25c-.044-.014-.206-.175-.25-.175-.22,0-.411.381-.47.5a6.55,6.55,0,0,1-.308,1.411c-.015.058-.073.307-.088.367a5.025,5.025,0,0,1-.338,1Z" transform="translate(-291.839 -384.456)" fill="#8d857b"/>
    </g>
  </g>
</svg>
