<svg id="グループ_43" data-name="グループ 43" xmlns="http://www.w3.org/2000/svg" width="146.229" height="32.92" viewBox="0 0 146.229 32.92">
  <path id="path2461" d="M77.252,196.707a4.214,4.214,0,0,1-3.2-6.746,4.338,4.338,0,0,1,2.512-1.583,7.488,7.488,0,0,1,1.253-.1h.36l-.2.126a4.006,4.006,0,0,0-1.091,1.014.443.443,0,0,1-.344.245,2.969,2.969,0,0,0-1.743,4.228,3.009,3.009,0,0,0,1.866,1.479l.213.062,19.955.007,19.955.008v1.278l-19.678-.005C86.288,196.717,77.352,196.711,77.252,196.707Zm2.223-1.718a3.086,3.086,0,0,1-.96-.3,3.36,3.36,0,0,1,1.307-6.379c.18-.015,5.019-.025,11.725-.025h11.419l.065-.075a.2.2,0,0,0-.027-.295c-.056-.046-.9-.049-16.837-.049H69.39v-1.25H86.206c14.728,0,16.837.005,16.99.041a1.519,1.519,0,0,1,1.12,1.192,1.5,1.5,0,0,1-1,1.633l-.181.064-11.78.014c-11.262.014-11.788.017-11.947.065a2.163,2.163,0,0,0-1.459,1.421,2.716,2.716,0,0,0-.057,1,2.165,2.165,0,0,0,1.5,1.656l.208.064,17.733.007,17.733.007v1.25l-17.677,0C82.97,195.025,79.668,195.018,79.475,194.988Zm2.737-1.681a1.537,1.537,0,0,1-1.056-.817,1.487,1.487,0,0,1,.917-2.047c.093-.031,2.071-.04,11.891-.052,11.288-.014,11.787-.017,11.946-.065a2.174,2.174,0,0,0,1.332-1.074,1.629,1.629,0,0,0,.223-.986,1.568,1.568,0,0,0-.072-.63,2.116,2.116,0,0,0-1.585-1.424c-.194-.04-1.961-.044-19.15-.044H67.723v-1.251l19.066.008c18.334.007,19.074.009,19.275.058a3.4,3.4,0,0,1,2.575,2.488,3.965,3.965,0,0,1,.066,1.273,3.263,3.263,0,0,1-.972,1.9,3.3,3.3,0,0,1-1.7.933c-.2.048-.771.051-11.936.065-9.523.012-11.735.021-11.771.051a.233.233,0,0,0,.052.363c.051.023,4.1.031,15.529.031h15.46v1.25l-15.524,0C89.309,193.331,82.273,193.32,82.212,193.308Zm25.117-1.769a4.269,4.269,0,0,0,1.149-1.054.417.417,0,0,1,.323-.229,3.316,3.316,0,0,0,.974-.512,2.96,2.96,0,0,0-1.1-5.183l-.267-.074-21.206-.007L66,184.473v-1.25l21.247.008,21.247.007.278.064a4.235,4.235,0,0,1,3.276,5.006,4.472,4.472,0,0,1-1.169,2.116,4.426,4.426,0,0,1-2.072,1.119,5.782,5.782,0,0,1-1.187.1h-.458Zm-34.966-8.823c0-.034.018-.181.04-.326a2.894,2.894,0,0,1,1.641-2.225,2.764,2.764,0,0,1,.931-.272l.236-.026,2.431.483,6.71,1.333,4.279.851-.01.123-.01.123H72.362Zm16.492-.1a2.565,2.565,0,0,1,.746-1.606,2.608,2.608,0,0,1,1.279-.7,3.3,3.3,0,0,1,.987-.01,2.583,2.583,0,0,1,2.074,2.273l.018.2H88.838Zm5.318.038c0-.1.009-.124.062-.137.034-.008,3.026-.606,6.647-1.328,5.341-1.064,6.621-1.311,6.776-1.307a2.947,2.947,0,0,1,2.354,1.444,3.042,3.042,0,0,1,.4,1.262l.019.188H94.172Zm-12.155-1.95c-5.4-1.078-6.615-1.329-6.75-1.393a3.12,3.12,0,0,1-1.148-.97,2.949,2.949,0,0,1-.021-3.331,3.864,3.864,0,0,1,.779-.779,2.981,2.981,0,0,1,2.638-.334c.116.044,1.914,1.231,5.767,3.807,3.079,2.059,5.609,3.753,5.621,3.765a.844.844,0,0,1-.082.288c-.087.22-.116.267-.162.264C88.627,182.023,85.639,181.43,82.017,180.707Zm11.951,1.054a.844.844,0,0,1-.082-.288c.013-.012,2.542-1.707,5.621-3.767,6.23-4.169,5.725-3.856,6.371-3.949A2.953,2.953,0,0,1,108.6,174.9a2.909,2.909,0,0,1,.084,3.41,3.184,3.184,0,0,1-1.178,1.005c-.11.05-1.92.422-6.763,1.39-3.637.727-6.625,1.322-6.641,1.322A.913.913,0,0,1,93.968,181.761Zm-10.41-4.484c-6.081-4.066-5.737-3.822-6.023-4.261a3.475,3.475,0,0,1-.383-.906,3.88,3.88,0,0,1,.011-1.379,2.955,2.955,0,0,1,2.416-2.191,2.5,2.5,0,0,1,.876,0,3.022,3.022,0,0,1,1.392.6l.207.164,3.774,5.644c2.076,3.1,3.778,5.657,3.782,5.673a.981.981,0,0,1-.2.231l-.2.2Zm9.81,3.572a.979.979,0,0,1-.192-.229c.048-.116,7.546-11.3,7.627-11.376a3.014,3.014,0,0,1,2.277-.722,3.418,3.418,0,0,1,.97.274,3,3,0,0,1,1.612,2.133,3.347,3.347,0,0,1-.042,1.222,2.972,2.972,0,0,1-.678,1.251c-.137.14-1.254.9-5.741,3.9-3.064,2.046-5.584,3.729-5.6,3.738S93.48,180.961,93.368,180.849Zm-3.842-1.289c-.292-.438-1.98-2.963-3.751-5.611s-3.244-4.871-3.274-4.941a2.316,2.316,0,0,1-.178-1.053,2.1,2.1,0,0,1,.075-.744,2.954,2.954,0,0,1,2.063-2.092,3.377,3.377,0,0,1,1.3-.055,2.953,2.953,0,0,1,2.07,1.516l.113.209,1.322,6.651c.727,3.658,1.316,6.668,1.308,6.689a.061.061,0,0,1-.05.038,1.62,1.62,0,0,0-.252.095l-.217.095Zm3.166.785a2.158,2.158,0,0,0-.248-.111,1,1,0,0,1-.239-.118c0-.014.58-3.006,1.3-6.648.972-4.919,1.326-6.662,1.377-6.774a3.174,3.174,0,0,1,.984-1.155,2.845,2.845,0,0,1,1.663-.514,2.81,2.81,0,0,1,1.39.336,2.91,2.91,0,0,1,1.393,3.544c-.071.205-.455.791-3.808,5.808-2.051,3.069-3.744,5.6-3.762,5.615S92.7,180.354,92.693,180.345Zm-2.918-6.985-1.327-6.682.03-.261a2.947,2.947,0,0,1,2.188-2.534,3.568,3.568,0,0,1,1.311-.032,2.95,2.95,0,0,1,2.157,1.8,3.406,3.406,0,0,1,.205.916c0,.092-2.526,12.988-2.629,13.421-.012.051-.036.056-.311.056h-.3Z" transform="translate(-66 -163.806)" fill="#fff"/>
  <g id="田中屋" transform="translate(-225.962 -413.436)" style="isolation: isolate">
    <g id="グループ_38" data-name="グループ 38" transform="translate(290.632 418.141)" style="isolation: isolate">
      <path id="パス_9" data-name="パス 9" d="M301.742,425.207l.367-.059,2.692-.264c.429-.03,1.286-.118,1.715-.147a9.17,9.17,0,0,0,1.01-.146l3.734-.381a11.212,11.212,0,0,0,1.377-.265,10.718,10.718,0,0,0,1.163-.616c.4.117.735.469,1.285,1.085.245.265,1.347,1.379,1.561,1.615a8.693,8.693,0,0,1,.918,1.2c0,.205-.091.293-.949.85a4.66,4.66,0,0,0-.672,1.409c-.092.352-.766,1.819-.888,2.142l-1.1,3.228-1.041,2.847c-.826,2.23-1.01,2.847-1.989,3.376-.336-.088-1.989-.587-2.05-.587a6.851,6.851,0,0,1-1.041-.147,18.952,18.952,0,0,0-2.265-.088c-1.715,0-6.183.382-6.581.44-1.223.235-1.377.235-1.774.616a2.094,2.094,0,0,1-1.164,1.2c-.367,0-1.377-1.615-1.5-2.73-.153-1.262-.7-4.4-.949-5.781l-.49-2.876c-.061-.352-.153-.88-.245-1.233l-.612-2.348a5.414,5.414,0,0,0-.857-1.761,3.67,3.67,0,0,1-.765-1.2c0-.236.337-.323.551-.323a9.246,9.246,0,0,1,1.714.851,2.657,2.657,0,0,1,1.255.88,3.9,3.9,0,0,0,.581.059c.337,0,2.693-.235,3.122-.294Zm-4.009,2c-.337.059-2.112.351-2.571.5-.031.147.52,4.109.643,4.431.153,0,.887.088,1.04.088a28.344,28.344,0,0,0,4.408-.616c.337-.059.49-.088.49-.352a29.181,29.181,0,0,0-.122-3.052c-.122-1.233-.367-1.527-.52-1.5Zm3.825,12.033h.214c0-.088.031-.265.031-.353,0-.117-.061-.47-.061-.557,0-.148.091-1.409.091-1.615,0-.263-.091-3.287-.152-3.639-.092-.059-.122-.088-.184-.088a1.565,1.565,0,0,0-.428.088c-.49.117-3.336.469-3.764.469-.215,0-1.1-.205-1.286-.235-.092.205,1.1,6.251,1.132,6.369Zm2.784-.147.154.03,2.663-.089c.122-.029,1.1-.088,1.285-.088a5.2,5.2,0,0,0,1.255-.088c.153-.381.734-2.113.826-2.464l1.622-5.723c.092-.382.49-2.054.551-2.318a7.879,7.879,0,0,0,.337-2.613,8.984,8.984,0,0,0-1.317-.087c-.306,0-1.683.117-1.959.117h-.551l-3.428.353c-.152,0-.887.029-1.04.058a3.8,3.8,0,0,0-.735.177c.551.411,1.347,1.027,1.347,1.35,0,.059-.367,1.262-.428,1.409-.031.411-.061,1.467-.061,1.7a1.4,1.4,0,0,0,.306.059,5.563,5.563,0,0,0,1.53-.382c.214-.088.367-.235.551-.235.918,0,3.857,0,3.857,1.086,0,.5-1.011.646-1.959.763a36.668,36.668,0,0,0-4.255.617,13.289,13.289,0,0,0-.275,2.64,26.454,26.454,0,0,0-.245,3.081Z" transform="translate(-290.632 -419.425)" fill="#fff"/>
      <path id="パス_10" data-name="パス 10" d="M337,418.288c.153,0,1.438-.117,1.591-.147.52,0,3.856,1.614,3.856,2.494a8.6,8.6,0,0,1-.428,1,5.644,5.644,0,0,0-.245,1.116c0,.088-.092.47-.092.558,0,.263-.031,1.35-.031,1.584.153,0,.734-.029.857-.029l2.754-.235a6.889,6.889,0,0,0,2.3-.528,2.372,2.372,0,0,1,1.163-.675c.123.087,1.1.763,1.99,1.467.153.118.734.676.856.764a7.818,7.818,0,0,1,.827.616c.214.353.337.528.337.676l-.061.117c-.123.029-.459.44-.551.5-.765.5-.857.646-1.683,1.878a19.265,19.265,0,0,0-1.776,2.348c0,.117.215.616.215.7,0,.294-.459.587-1.01.587-.888,0-4.8.117-5.6.117-.642,0-.857,0-.857.323,0,.059.031.352.031.382,0,.117-.092.5-.092.587,0,.117.031.705.031.822l-.092,2.671a16.921,16.921,0,0,1-.306,3.491c-.031.147-.092.822-.122.94a10.778,10.778,0,0,1-.612,1.966,5.487,5.487,0,0,0-.367.528h-.153a4.021,4.021,0,0,1-.612-2.084c0-.059.031-.351.031-.41l-.092-2.582.031-3.229c0-.146-.061-.822-.061-.968,0-.324,0-1.791-.031-2.055a19.367,19.367,0,0,0-3.673.5,17.843,17.843,0,0,0-1.9.588c-.122.087-.336.616-.428.674-.031.206-.062.236-.214.294-.4-.177-2.112-1.409-2.173-2.348a22.982,22.982,0,0,0-.8-3.757c-.092-.352-.827-2.641-.918-2.817a4.863,4.863,0,0,1-.858-1.614.17.17,0,0,1,.184-.177,10.17,10.17,0,0,1,2.571.852,1.443,1.443,0,0,0,.826.323,59.832,59.832,0,0,0,6.457-.705c.673-.175.734-.175.734-.47,0-.2-.031-1.144-.031-1.32a28.717,28.717,0,0,0-.245-3.346,6.415,6.415,0,0,0-1.53-1.761Zm-4.958,9.626.734,2.612c.091.352.428,2,.55,2.29a32.176,32.176,0,0,0,5.632-.881l-.061-2.817c0-.382,0-2.2-.031-2.436a7.733,7.733,0,0,0-1.408.235c-.337.059-1.775.088-2.05.176a14.513,14.513,0,0,1-1.469.293c-.275,0-1.47-.147-1.744-.147a.423.423,0,0,0-.246.089v.117Zm12.241,3.287a4.717,4.717,0,0,0,1.867-.235c.428-.822.49-.91.8-1.614a18.589,18.589,0,0,0,1.07-3.228,1.094,1.094,0,0,0-.091-.294,5.867,5.867,0,0,0-1.837.118c-.7.117-3.856.351-4.467.44a3.81,3.81,0,0,0-.062.587c0,.205.092,1.173.092,1.35a22.45,22.45,0,0,0-.184,3.287C341.9,431.582,344.1,431.2,344.284,431.2Z" transform="translate(-298.684 -418.141)" fill="#fff"/>
      <path id="パス_11" data-name="パス 11" d="M363.158,441.216c-.184-.44.153-.792.459-1.116.245-.293,1.1-1.643,1.316-1.878.153-.234,1.53-3.052,1.683-3.374a34.071,34.071,0,0,0,1.836-5.665c.061-.5.367-2.025.612-3.023.061-.323.184-1.761.214-2.055,0-.117-.03-.616-.03-.7a6.514,6.514,0,0,0-.123-1.556c-.061-.088-.275-.5-.366-.645-.062-.118-.552-.617-.552-.764,0-.5.673-.5.888-.5a3.193,3.193,0,0,1,1.623.293c.734.646.826.7,1.132.7.612,0,6.948-.968,7.009-.968a16.5,16.5,0,0,0,3.581-.646c.122-.088.581-.558.7-.558a1.029,1.029,0,0,1,.734.44c.275.117,2.479,1.409,2.539,1.467a.849.849,0,0,1,.215.852,7.679,7.679,0,0,0-.979.587c-.245.352-.8,1.085-1.071,1.438a1.3,1.3,0,0,0-.093.323.891.891,0,0,1,.307.792c0,.47-.673.47-.827.47-.091,0-4.1.351-4.222.351a13.282,13.282,0,0,0-3.49.441c-1.682.352-3.641.675-3.7.675h-.674a15.877,15.877,0,0,0-.551,1.966,1.063,1.063,0,0,0-.152.323c-.062.264-.337,1.614-.4,1.878-.031.147-.337.793-.4.939-.061.205-.337,1.379-.428,1.585a18.85,18.85,0,0,1-3.764,5.753c-.275.352-1.928,1.613-2.2,1.878-.062.059-.643.293-.765.352Zm10.375-11.593c-.184-.029-.276-.088-1.286-.646-.031-.176,0-.293.184-.293.061,0,.7.147.857.147a9.86,9.86,0,0,0,3.245-.352c.122-.029,1.9-.235,2.141-.264a22.793,22.793,0,0,0,3.184-.822c.152-.029.8-.351.918-.351.092,0,.49.088.52.088,1.071,0,1.714.44,1.714.88,0,.352-.153.382-1.377.763-.49.147-2.877.205-3.275.411-.184-.029-1.01.117-1.164.117h-.642l.03.088a2.868,2.868,0,0,0,.49.616.389.389,0,0,1-.213.411,35.348,35.348,0,0,0-3.764,2.671.638.638,0,0,0-.092.147,1.391,1.391,0,0,0,.305.059,4.416,4.416,0,0,0,.7-.147l2.387-.675c.734-.205,2.754-.822,3.428-1.115-.061-.117-.674-1.2-.7-1.233a3.239,3.239,0,0,1-.428-.528c0-.088.122-.235.366-.235a12.325,12.325,0,0,1,3.245,1.5c.183.176.979.851,1.132,1.027a2.543,2.543,0,0,1,.643,2.054c0,.117,0,.616-.337.616a1.781,1.781,0,0,1-1.316-.44c-.275-.234-1.378-1.291-1.591-1.5a7.057,7.057,0,0,0-1.776.675l-.4.088c-.4.147-1.285.5-1.376.558a5.411,5.411,0,0,1,.734.293c.7.528.8.588.8.851,0,.059-.184.792-.215.88a7.64,7.64,0,0,0-.031.851,6.648,6.648,0,0,0,1.041-.411.452.452,0,0,0,.276.029,2.3,2.3,0,0,1,.52-.088c.061,0,1.438.205,1.5.235a.41.41,0,0,1,.306.47c0,.411-.428.675-.8.792-.429.148-2.388.558-2.786.646-.092.234-.459,2.406-.581,2.847l.122.029,2.786-.088.337-.029a1.779,1.779,0,0,1,.581-.089,4.147,4.147,0,0,1,.551-.2c.184,0,1.071.235,1.194.235a2.555,2.555,0,0,1,2.02,1.056.371.371,0,0,1,.153.352.789.789,0,0,1-.245.675,1.347,1.347,0,0,0-.52.175c-.092,0-.337.029-.459.029a11.211,11.211,0,0,0-1.255-.5c-.275-.029-1.5-.322-1.776-.381-.122-.029-2.2-.293-2.325-.293a6,6,0,0,0-.979.146c-.184.059-1.224.088-1.438.118-.245.029-1.744.41-2.082.47a11.1,11.1,0,0,0-3.182.85,9.854,9.854,0,0,1-1.072.411,9.08,9.08,0,0,1-.856-.351,16.1,16.1,0,0,1-2.327-1.439c.031-.059.061-.146.122-.146s1.194.264,1.408.264a16.72,16.72,0,0,0,2.969-.264,15.89,15.89,0,0,1,1.653-.205c.4-.089,2.754-.5,2.815-.529a12.155,12.155,0,0,1-.305-2.759,8.323,8.323,0,0,1-2.356.411,2.372,2.372,0,0,1-.8-.088c-.061-.029-.337-.234-.4-.263-.551-.265-1.561-.734-1.591-.792a.391.391,0,0,1,0-.265c.246-.029,1.591.177,1.653.177a17.857,17.857,0,0,0,3.4-.558,20.762,20.762,0,0,0-.154-2.377.937.937,0,0,0-.551-.47,16.544,16.544,0,0,0-1.591.5,6.212,6.212,0,0,0-2.2.7.345.345,0,0,1-.153.029c-.55,0-1.194-1.643-1.194-1.965,0-.47.52-.617.949-.734a9.322,9.322,0,0,0,2.785-3.287c0-.059-.061-.088-.122-.088-.092,0-.827.117-.979.117Zm-1.286-4.52c.184,0,3.611-.44,3.917-.5.735-.175,4.683-.616,4.806-.762a19.966,19.966,0,0,0,1.04-1.79c.092-.294.276-.91.368-1.175a25.538,25.538,0,0,0-2.755.117c-.275.029-1.53.029-1.652.059s-.766.177-.858.206c-.306.058-1.806.175-2.08.235-.368.059-2.051.528-2.418.558-.093,0-.184.029-.276.029-.061.323-.4,2.671-.4,2.963A.476.476,0,0,0,372.247,425.1Z" transform="translate(-306.235 -418.295)" fill="#fff"/>
    </g>
  </g>
</svg>
