<svg xmlns="http://www.w3.org/2000/svg" width="46.479" height="169.003" viewBox="0 0 46.479 169.003">
  <g id="グループ_90" data-name="グループ 90" transform="translate(-177.155 -3375.997)">
    <text id="お_部_屋" data-name="お
部
屋" transform="translate(185 3445)" fill="#8d857b" font-size="30" font-family="TenMincho-Regular, Ten Mincho" letter-spacing="0.1em"><tspan x="0" y="0">お</tspan><tspan x="0" y="45">部</tspan><tspan x="0" y="90">屋</tspan></text>
    <path id="path2461" d="M76.3,193.915a3.856,3.856,0,0,1-2.925-6.174,3.97,3.97,0,0,1,2.3-1.449,6.852,6.852,0,0,1,1.146-.089h.329l-.187.115a3.666,3.666,0,0,0-1,.928.406.406,0,0,1-.315.224,2.717,2.717,0,0,0-1.6,3.869,2.753,2.753,0,0,0,1.708,1.353l.195.057,18.262.007,18.262.007v1.169l-18.008,0C84.567,193.925,76.388,193.919,76.3,193.915Zm2.034-1.573a2.824,2.824,0,0,1-.879-.278,3.075,3.075,0,0,1,1.2-5.838c.164-.014,4.593-.023,10.73-.023H99.83l.06-.068a.186.186,0,0,0-.024-.27c-.051-.042-.822-.044-15.408-.044H69.1v-1.144H84.491c13.478,0,15.409,0,15.548.038a1.39,1.39,0,0,1,1.025,1.09,1.376,1.376,0,0,1-.917,1.495l-.165.059-10.781.013c-10.306.013-10.787.015-10.933.059a1.98,1.98,0,0,0-1.335,1.3,2.486,2.486,0,0,0-.052.917,1.981,1.981,0,0,0,1.375,1.515l.191.059,16.228.007,16.228.006v1.144l-16.177,0C81.53,192.376,78.508,192.37,78.332,192.343Zm2.5-1.538a1.407,1.407,0,0,1-.967-.748,1.361,1.361,0,0,1,.839-1.874c.085-.029,1.9-.037,10.882-.048,10.331-.013,10.787-.015,10.932-.06a1.989,1.989,0,0,0,1.219-.983,1.49,1.49,0,0,0,.2-.9,1.435,1.435,0,0,0-.066-.576,1.936,1.936,0,0,0-1.45-1.3c-.178-.037-1.795-.04-17.525-.04H67.576v-1.144l17.449.007c16.779.007,17.456.009,17.639.053a3.111,3.111,0,0,1,2.357,2.277,3.629,3.629,0,0,1,.06,1.165,2.986,2.986,0,0,1-.889,1.737,3.023,3.023,0,0,1-1.553.854c-.182.044-.706.046-10.923.059-8.715.011-10.74.02-10.772.046a.213.213,0,0,0,.047.333c.047.021,3.75.029,14.211.029h14.149v1.144l-14.207,0C87.331,190.826,80.892,190.816,80.836,190.8Zm22.986-1.619a3.907,3.907,0,0,0,1.052-.965.381.381,0,0,1,.3-.21,3.035,3.035,0,0,0,.891-.469,2.708,2.708,0,0,0-1-4.743l-.245-.068-19.407-.007L66,182.719v-1.144l19.445.007,19.445.007.254.059a3.875,3.875,0,0,1,3,4.581,4.093,4.093,0,0,1-1.07,1.937,4.05,4.05,0,0,1-1.9,1.024,5.291,5.291,0,0,1-1.086.09h-.419Zm-32-8.074c0-.032.017-.166.037-.3a2.648,2.648,0,0,1,1.5-2.036,2.53,2.53,0,0,1,.852-.249l.216-.024,2.225.442,6.14,1.22,3.916.778-.009.112-.009.112H71.823Zm15.093-.089a2.347,2.347,0,0,1,.682-1.47,2.387,2.387,0,0,1,1.171-.64,3.02,3.02,0,0,1,.9-.009,2.364,2.364,0,0,1,1.9,2.081l.016.184H86.9Zm4.867.035c0-.095.009-.114.057-.126.031-.008,2.769-.554,6.083-1.215,4.887-.974,6.059-1.2,6.2-1.2a2.7,2.7,0,0,1,2.154,1.321,2.784,2.784,0,0,1,.367,1.155l.018.172H91.782Zm-11.124-1.784c-4.939-.987-6.053-1.217-6.178-1.275a2.855,2.855,0,0,1-1.05-.888,2.7,2.7,0,0,1-.019-3.048,3.536,3.536,0,0,1,.712-.713,2.728,2.728,0,0,1,2.414-.306c.106.04,1.752,1.126,5.278,3.484,2.818,1.885,5.133,3.435,5.144,3.446a.772.772,0,0,1-.075.264c-.079.2-.106.244-.148.242S83.973,179.935,80.658,179.273Zm10.937.965a.772.772,0,0,1-.075-.264c.012-.011,2.327-1.562,5.144-3.448,5.7-3.815,5.239-3.528,5.83-3.614a2.7,2.7,0,0,1,2.491,1.048,2.662,2.662,0,0,1,.077,3.121,2.914,2.914,0,0,1-1.078.92c-.1.046-1.757.386-6.189,1.272-3.328.665-6.063,1.21-6.078,1.21A.835.835,0,0,1,91.595,180.237Zm-9.526-4.1c-5.565-3.721-5.25-3.5-5.512-3.9a3.18,3.18,0,0,1-.351-.829,3.551,3.551,0,0,1,.01-1.262,2.7,2.7,0,0,1,2.211-2.005,2.29,2.29,0,0,1,.8,0,2.765,2.765,0,0,1,1.274.553l.189.15L84.145,174c1.9,2.841,3.457,5.177,3.461,5.192a.9.9,0,0,1-.179.211l-.186.185Zm8.978,3.269a.9.9,0,0,1-.176-.209c.044-.106,6.905-10.341,6.98-10.411a2.759,2.759,0,0,1,2.083-.661,3.128,3.128,0,0,1,.888.251,2.746,2.746,0,0,1,1.476,1.952,3.063,3.063,0,0,1-.038,1.118,2.72,2.72,0,0,1-.621,1.145c-.125.128-1.147.822-5.254,3.565-2.8,1.873-5.11,3.412-5.125,3.421S91.148,179.506,91.046,179.4Zm-3.516-1.18L84.1,173.089c-1.621-2.423-2.969-4.458-3-4.522a2.12,2.12,0,0,1-.163-.964,1.917,1.917,0,0,1,.069-.681,2.7,2.7,0,0,1,1.888-1.914,3.091,3.091,0,0,1,1.192-.051,2.7,2.7,0,0,1,1.894,1.388l.1.191,1.21,6.087c.666,3.348,1.2,6.1,1.2,6.121a.055.055,0,0,1-.046.035,1.483,1.483,0,0,0-.231.087l-.2.087Zm2.9.718a1.977,1.977,0,0,0-.227-.1.91.91,0,0,1-.218-.108c0-.013.531-2.751,1.19-6.084.89-4.5,1.214-6.1,1.26-6.2a2.9,2.9,0,0,1,.9-1.057,2.6,2.6,0,0,1,1.522-.471,2.571,2.571,0,0,1,1.272.307,2.663,2.663,0,0,1,1.274,3.243c-.065.188-.417.724-3.485,5.315-1.877,2.808-3.426,5.121-3.442,5.139S90.437,178.95,90.428,178.941Zm-2.67-6.392-1.214-6.115.028-.238a2.7,2.7,0,0,1,2-2.319,3.265,3.265,0,0,1,1.2-.029,2.7,2.7,0,0,1,1.974,1.644,3.117,3.117,0,0,1,.188.839c0,.084-2.312,11.886-2.406,12.283-.011.047-.033.051-.284.051h-.272Z" transform="translate(111.155 3212.191)" fill="#b7a997"/>
  </g>
</svg>
